<?xml version="1.0" encoding="utf-8"?>
<svg xmlns="http://www.w3.org/2000/svg" xmlns:xlink="http://www.w3.org/1999/xlink" xml:space="preserve" width="990" height="990" viewBox="0 0 990 990"><defs><linearGradient id="pattern-mask" x1="0%" y1="0%" x2="12%" y2="100%" gradientUnits="userSpaceOnUse"><stop offset="0%" stop-color="#ffffff"/><stop offset="100%" stop-color="#ffffff"/></linearGradient>
<mask id="qrmask"><g fill="#ffffff"><g>
<g transform="translate(242,44) scale(3.7766666666667)"><rect width="6" height="6"/></g>
<g transform="translate(264,44) scale(3.7766666666667)"><rect width="6" height="6"/></g>
<g transform="translate(286,44) scale(3.7766666666667)"><rect width="6" height="6"/></g>
<g transform="translate(330,44) scale(3.7766666666667)"><rect width="6" height="6"/></g>
<g transform="translate(396,44) scale(3.7766666666667)"><rect width="6" height="6"/></g>
<g transform="translate(418,44) scale(3.7766666666667)"><rect width="6" height="6"/></g>
<g transform="translate(440,44) scale(3.7766666666667)"><rect width="6" height="6"/></g>
<g transform="translate(462,44) scale(3.7766666666667)"><rect width="6" height="6"/></g>
<g transform="translate(506,44) scale(3.7766666666667)"><rect width="6" height="6"/></g>
<g transform="translate(550,44) scale(3.7766666666667)"><rect width="6" height="6"/></g>
<g transform="translate(572,44) scale(3.7766666666667)"><rect width="6" height="6"/></g>
<g transform="translate(616,44) scale(3.7766666666667)"><rect width="6" height="6"/></g>
<g transform="translate(660,44) scale(3.7766666666667)"><rect width="6" height="6"/></g>
<g transform="translate(242,66) scale(3.7766666666667)"><rect width="6" height="6"/></g>
<g transform="translate(264,66) scale(3.7766666666667)"><rect width="6" height="6"/></g>
<g transform="translate(308,66) scale(3.7766666666667)"><rect width="6" height="6"/></g>
<g transform="translate(352,66) scale(3.7766666666667)"><rect width="6" height="6"/></g>
<g transform="translate(374,66) scale(3.7766666666667)"><rect width="6" height="6"/></g>
<g transform="translate(396,66) scale(3.7766666666667)"><rect width="6" height="6"/></g>
<g transform="translate(418,66) scale(3.7766666666667)"><rect width="6" height="6"/></g>
<g transform="translate(462,66) scale(3.7766666666667)"><rect width="6" height="6"/></g>
<g transform="translate(484,66) scale(3.7766666666667)"><rect width="6" height="6"/></g>
<g transform="translate(506,66) scale(3.7766666666667)"><rect width="6" height="6"/></g>
<g transform="translate(550,66) scale(3.7766666666667)"><rect width="6" height="6"/></g>
<g transform="translate(594,66) scale(3.7766666666667)"><rect width="6" height="6"/></g>
<g transform="translate(616,66) scale(3.7766666666667)"><rect width="6" height="6"/></g>
<g transform="translate(638,66) scale(3.7766666666667)"><rect width="6" height="6"/></g>
<g transform="translate(682,66) scale(3.7766666666667)"><rect width="6" height="6"/></g>
<g transform="translate(704,66) scale(3.7766666666667)"><rect width="6" height="6"/></g>
<g transform="translate(220,88) scale(3.7766666666667)"><rect width="6" height="6"/></g>
<g transform="translate(242,88) scale(3.7766666666667)"><rect width="6" height="6"/></g>
<g transform="translate(264,88) scale(3.7766666666667)"><rect width="6" height="6"/></g>
<g transform="translate(286,88) scale(3.7766666666667)"><rect width="6" height="6"/></g>
<g transform="translate(308,88) scale(3.7766666666667)"><rect width="6" height="6"/></g>
<g transform="translate(330,88) scale(3.7766666666667)"><rect width="6" height="6"/></g>
<g transform="translate(352,88) scale(3.7766666666667)"><rect width="6" height="6"/></g>
<g transform="translate(374,88) scale(3.7766666666667)"><rect width="6" height="6"/></g>
<g transform="translate(418,88) scale(3.7766666666667)"><rect width="6" height="6"/></g>
<g transform="translate(440,88) scale(3.7766666666667)"><rect width="6" height="6"/></g>
<g transform="translate(462,88) scale(3.7766666666667)"><rect width="6" height="6"/></g>
<g transform="translate(484,88) scale(3.7766666666667)"><rect width="6" height="6"/></g>
<g transform="translate(506,88) scale(3.7766666666667)"><rect width="6" height="6"/></g>
<g transform="translate(528,88) scale(3.7766666666667)"><rect width="6" height="6"/></g>
<g transform="translate(550,88) scale(3.7766666666667)"><rect width="6" height="6"/></g>
<g transform="translate(660,88) scale(3.7766666666667)"><rect width="6" height="6"/></g>
<g transform="translate(726,88) scale(3.7766666666667)"><rect width="6" height="6"/></g>
<g transform="translate(748,88) scale(3.7766666666667)"><rect width="6" height="6"/></g>
<g transform="translate(220,110) scale(3.7766666666667)"><rect width="6" height="6"/></g>
<g transform="translate(286,110) scale(3.7766666666667)"><rect width="6" height="6"/></g>
<g transform="translate(308,110) scale(3.7766666666667)"><rect width="6" height="6"/></g>
<g transform="translate(396,110) scale(3.7766666666667)"><rect width="6" height="6"/></g>
<g transform="translate(484,110) scale(3.7766666666667)"><rect width="6" height="6"/></g>
<g transform="translate(506,110) scale(3.7766666666667)"><rect width="6" height="6"/></g>
<g transform="translate(572,110) scale(3.7766666666667)"><rect width="6" height="6"/></g>
<g transform="translate(594,110) scale(3.7766666666667)"><rect width="6" height="6"/></g>
<g transform="translate(616,110) scale(3.7766666666667)"><rect width="6" height="6"/></g>
<g transform="translate(638,110) scale(3.7766666666667)"><rect width="6" height="6"/></g>
<g transform="translate(682,110) scale(3.7766666666667)"><rect width="6" height="6"/></g>
<g transform="translate(220,132) scale(3.7766666666667)"><rect width="6" height="6"/></g>
<g transform="translate(286,132) scale(3.7766666666667)"><rect width="6" height="6"/></g>
<g transform="translate(308,132) scale(3.7766666666667)"><rect width="6" height="6"/></g>
<g transform="translate(352,132) scale(3.7766666666667)"><rect width="6" height="6"/></g>
<g transform="translate(440,132) scale(3.7766666666667)"><rect width="6" height="6"/></g>
<g transform="translate(462,132) scale(3.7766666666667)"><rect width="6" height="6"/></g>
<g transform="translate(484,132) scale(3.7766666666667)"><rect width="6" height="6"/></g>
<g transform="translate(528,132) scale(3.7766666666667)"><rect width="6" height="6"/></g>
<g transform="translate(550,132) scale(3.7766666666667)"><rect width="6" height="6"/></g>
<g transform="translate(594,132) scale(3.7766666666667)"><rect width="6" height="6"/></g>
<g transform="translate(616,132) scale(3.7766666666667)"><rect width="6" height="6"/></g>
<g transform="translate(660,132) scale(3.7766666666667)"><rect width="6" height="6"/></g>
<g transform="translate(704,132) scale(3.7766666666667)"><rect width="6" height="6"/></g>
<g transform="translate(726,132) scale(3.7766666666667)"><rect width="6" height="6"/></g>
<g transform="translate(748,132) scale(3.7766666666667)"><rect width="6" height="6"/></g>
<g transform="translate(220,154) scale(3.7766666666667)"><rect width="6" height="6"/></g>
<g transform="translate(242,154) scale(3.7766666666667)"><rect width="6" height="6"/></g>
<g transform="translate(286,154) scale(3.7766666666667)"><rect width="6" height="6"/></g>
<g transform="translate(308,154) scale(3.7766666666667)"><rect width="6" height="6"/></g>
<g transform="translate(352,154) scale(3.7766666666667)"><rect width="6" height="6"/></g>
<g transform="translate(418,154) scale(3.7766666666667)"><rect width="6" height="6"/></g>
<g transform="translate(440,154) scale(3.7766666666667)"><rect width="6" height="6"/></g>
<g transform="translate(484,154) scale(3.7766666666667)"><rect width="6" height="6"/></g>
<g transform="translate(528,154) scale(3.7766666666667)"><rect width="6" height="6"/></g>
<g transform="translate(572,154) scale(3.7766666666667)"><rect width="6" height="6"/></g>
<g transform="translate(616,154) scale(3.7766666666667)"><rect width="6" height="6"/></g>
<g transform="translate(638,154) scale(3.7766666666667)"><rect width="6" height="6"/></g>
<g transform="translate(660,154) scale(3.7766666666667)"><rect width="6" height="6"/></g>
<g transform="translate(682,154) scale(3.7766666666667)"><rect width="6" height="6"/></g>
<g transform="translate(704,154) scale(3.7766666666667)"><rect width="6" height="6"/></g>
<g transform="translate(220,176) scale(3.7766666666667)"><rect width="6" height="6"/></g>
<g transform="translate(264,176) scale(3.7766666666667)"><rect width="6" height="6"/></g>
<g transform="translate(308,176) scale(3.7766666666667)"><rect width="6" height="6"/></g>
<g transform="translate(352,176) scale(3.7766666666667)"><rect width="6" height="6"/></g>
<g transform="translate(396,176) scale(3.7766666666667)"><rect width="6" height="6"/></g>
<g transform="translate(440,176) scale(3.7766666666667)"><rect width="6" height="6"/></g>
<g transform="translate(484,176) scale(3.7766666666667)"><rect width="6" height="6"/></g>
<g transform="translate(528,176) scale(3.7766666666667)"><rect width="6" height="6"/></g>
<g transform="translate(572,176) scale(3.7766666666667)"><rect width="6" height="6"/></g>
<g transform="translate(616,176) scale(3.7766666666667)"><rect width="6" height="6"/></g>
<g transform="translate(660,176) scale(3.7766666666667)"><rect width="6" height="6"/></g>
<g transform="translate(704,176) scale(3.7766666666667)"><rect width="6" height="6"/></g>
<g transform="translate(748,176) scale(3.7766666666667)"><rect width="6" height="6"/></g>
<g transform="translate(220,198) scale(3.7766666666667)"><rect width="6" height="6"/></g>
<g transform="translate(242,198) scale(3.7766666666667)"><rect width="6" height="6"/></g>
<g transform="translate(308,198) scale(3.7766666666667)"><rect width="6" height="6"/></g>
<g transform="translate(352,198) scale(3.7766666666667)"><rect width="6" height="6"/></g>
<g transform="translate(374,198) scale(3.7766666666667)"><rect width="6" height="6"/></g>
<g transform="translate(462,198) scale(3.7766666666667)"><rect width="6" height="6"/></g>
<g transform="translate(484,198) scale(3.7766666666667)"><rect width="6" height="6"/></g>
<g transform="translate(506,198) scale(3.7766666666667)"><rect width="6" height="6"/></g>
<g transform="translate(572,198) scale(3.7766666666667)"><rect width="6" height="6"/></g>
<g transform="translate(638,198) scale(3.7766666666667)"><rect width="6" height="6"/></g>
<g transform="translate(704,198) scale(3.7766666666667)"><rect width="6" height="6"/></g>
<g transform="translate(726,198) scale(3.7766666666667)"><rect width="6" height="6"/></g>
<g transform="translate(44,220) scale(3.7766666666667)"><rect width="6" height="6"/></g>
<g transform="translate(88,220) scale(3.7766666666667)"><rect width="6" height="6"/></g>
<g transform="translate(110,220) scale(3.7766666666667)"><rect width="6" height="6"/></g>
<g transform="translate(132,220) scale(3.7766666666667)"><rect width="6" height="6"/></g>
<g transform="translate(154,220) scale(3.7766666666667)"><rect width="6" height="6"/></g>
<g transform="translate(176,220) scale(3.7766666666667)"><rect width="6" height="6"/></g>
<g transform="translate(286,220) scale(3.7766666666667)"><rect width="6" height="6"/></g>
<g transform="translate(352,220) scale(3.7766666666667)"><rect width="6" height="6"/></g>
<g transform="translate(396,220) scale(3.7766666666667)"><rect width="6" height="6"/></g>
<g transform="translate(418,220) scale(3.7766666666667)"><rect width="6" height="6"/></g>
<g transform="translate(462,220) scale(3.7766666666667)"><rect width="6" height="6"/></g>
<g transform="translate(528,220) scale(3.7766666666667)"><rect width="6" height="6"/></g>
<g transform="translate(572,220) scale(3.7766666666667)"><rect width="6" height="6"/></g>
<g transform="translate(594,220) scale(3.7766666666667)"><rect width="6" height="6"/></g>
<g transform="translate(616,220) scale(3.7766666666667)"><rect width="6" height="6"/></g>
<g transform="translate(638,220) scale(3.7766666666667)"><rect width="6" height="6"/></g>
<g transform="translate(682,220) scale(3.7766666666667)"><rect width="6" height="6"/></g>
<g transform="translate(726,220) scale(3.7766666666667)"><rect width="6" height="6"/></g>
<g transform="translate(748,220) scale(3.7766666666667)"><rect width="6" height="6"/></g>
<g transform="translate(792,220) scale(3.7766666666667)"><rect width="6" height="6"/></g>
<g transform="translate(814,220) scale(3.7766666666667)"><rect width="6" height="6"/></g>
<g transform="translate(836,220) scale(3.7766666666667)"><rect width="6" height="6"/></g>
<g transform="translate(858,220) scale(3.7766666666667)"><rect width="6" height="6"/></g>
<g transform="translate(880,220) scale(3.7766666666667)"><rect width="6" height="6"/></g>
<g transform="translate(88,242) scale(3.7766666666667)"><rect width="6" height="6"/></g>
<g transform="translate(110,242) scale(3.7766666666667)"><rect width="6" height="6"/></g>
<g transform="translate(132,242) scale(3.7766666666667)"><rect width="6" height="6"/></g>
<g transform="translate(198,242) scale(3.7766666666667)"><rect width="6" height="6"/></g>
<g transform="translate(308,242) scale(3.7766666666667)"><rect width="6" height="6"/></g>
<g transform="translate(374,242) scale(3.7766666666667)"><rect width="6" height="6"/></g>
<g transform="translate(440,242) scale(3.7766666666667)"><rect width="6" height="6"/></g>
<g transform="translate(462,242) scale(3.7766666666667)"><rect width="6" height="6"/></g>
<g transform="translate(484,242) scale(3.7766666666667)"><rect width="6" height="6"/></g>
<g transform="translate(550,242) scale(3.7766666666667)"><rect width="6" height="6"/></g>
<g transform="translate(660,242) scale(3.7766666666667)"><rect width="6" height="6"/></g>
<g transform="translate(682,242) scale(3.7766666666667)"><rect width="6" height="6"/></g>
<g transform="translate(704,242) scale(3.7766666666667)"><rect width="6" height="6"/></g>
<g transform="translate(726,242) scale(3.7766666666667)"><rect width="6" height="6"/></g>
<g transform="translate(748,242) scale(3.7766666666667)"><rect width="6" height="6"/></g>
<g transform="translate(770,242) scale(3.7766666666667)"><rect width="6" height="6"/></g>
<g transform="translate(814,242) scale(3.7766666666667)"><rect width="6" height="6"/></g>
<g transform="translate(836,242) scale(3.7766666666667)"><rect width="6" height="6"/></g>
<g transform="translate(880,242) scale(3.7766666666667)"><rect width="6" height="6"/></g>
<g transform="translate(902,242) scale(3.7766666666667)"><rect width="6" height="6"/></g>
<g transform="translate(924,242) scale(3.7766666666667)"><rect width="6" height="6"/></g>
<g transform="translate(44,264) scale(3.7766666666667)"><rect width="6" height="6"/></g>
<g transform="translate(88,264) scale(3.7766666666667)"><rect width="6" height="6"/></g>
<g transform="translate(176,264) scale(3.7766666666667)"><rect width="6" height="6"/></g>
<g transform="translate(264,264) scale(3.7766666666667)"><rect width="6" height="6"/></g>
<g transform="translate(286,264) scale(3.7766666666667)"><rect width="6" height="6"/></g>
<g transform="translate(308,264) scale(3.7766666666667)"><rect width="6" height="6"/></g>
<g transform="translate(330,264) scale(3.7766666666667)"><rect width="6" height="6"/></g>
<g transform="translate(396,264) scale(3.7766666666667)"><rect width="6" height="6"/></g>
<g transform="translate(418,264) scale(3.7766666666667)"><rect width="6" height="6"/></g>
<g transform="translate(506,264) scale(3.7766666666667)"><rect width="6" height="6"/></g>
<g transform="translate(528,264) scale(3.7766666666667)"><rect width="6" height="6"/></g>
<g transform="translate(594,264) scale(3.7766666666667)"><rect width="6" height="6"/></g>
<g transform="translate(616,264) scale(3.7766666666667)"><rect width="6" height="6"/></g>
<g transform="translate(638,264) scale(3.7766666666667)"><rect width="6" height="6"/></g>
<g transform="translate(660,264) scale(3.7766666666667)"><rect width="6" height="6"/></g>
<g transform="translate(682,264) scale(3.7766666666667)"><rect width="6" height="6"/></g>
<g transform="translate(704,264) scale(3.7766666666667)"><rect width="6" height="6"/></g>
<g transform="translate(748,264) scale(3.7766666666667)"><rect width="6" height="6"/></g>
<g transform="translate(770,264) scale(3.7766666666667)"><rect width="6" height="6"/></g>
<g transform="translate(902,264) scale(3.7766666666667)"><rect width="6" height="6"/></g>
<g transform="translate(44,286) scale(3.7766666666667)"><rect width="6" height="6"/></g>
<g transform="translate(88,286) scale(3.7766666666667)"><rect width="6" height="6"/></g>
<g transform="translate(154,286) scale(3.7766666666667)"><rect width="6" height="6"/></g>
<g transform="translate(264,286) scale(3.7766666666667)"><rect width="6" height="6"/></g>
<g transform="translate(308,286) scale(3.7766666666667)"><rect width="6" height="6"/></g>
<g transform="translate(330,286) scale(3.7766666666667)"><rect width="6" height="6"/></g>
<g transform="translate(352,286) scale(3.7766666666667)"><rect width="6" height="6"/></g>
<g transform="translate(374,286) scale(3.7766666666667)"><rect width="6" height="6"/></g>
<g transform="translate(440,286) scale(3.7766666666667)"><rect width="6" height="6"/></g>
<g transform="translate(462,286) scale(3.7766666666667)"><rect width="6" height="6"/></g>
<g transform="translate(484,286) scale(3.7766666666667)"><rect width="6" height="6"/></g>
<g transform="translate(506,286) scale(3.7766666666667)"><rect width="6" height="6"/></g>
<g transform="translate(572,286) scale(3.7766666666667)"><rect width="6" height="6"/></g>
<g transform="translate(616,286) scale(3.7766666666667)"><rect width="6" height="6"/></g>
<g transform="translate(726,286) scale(3.7766666666667)"><rect width="6" height="6"/></g>
<g transform="translate(748,286) scale(3.7766666666667)"><rect width="6" height="6"/></g>
<g transform="translate(792,286) scale(3.7766666666667)"><rect width="6" height="6"/></g>
<g transform="translate(836,286) scale(3.7766666666667)"><rect width="6" height="6"/></g>
<g transform="translate(858,286) scale(3.7766666666667)"><rect width="6" height="6"/></g>
<g transform="translate(902,286) scale(3.7766666666667)"><rect width="6" height="6"/></g>
<g transform="translate(924,286) scale(3.7766666666667)"><rect width="6" height="6"/></g>
<g transform="translate(66,308) scale(3.7766666666667)"><rect width="6" height="6"/></g>
<g transform="translate(110,308) scale(3.7766666666667)"><rect width="6" height="6"/></g>
<g transform="translate(154,308) scale(3.7766666666667)"><rect width="6" height="6"/></g>
<g transform="translate(176,308) scale(3.7766666666667)"><rect width="6" height="6"/></g>
<g transform="translate(220,308) scale(3.7766666666667)"><rect width="6" height="6"/></g>
<g transform="translate(242,308) scale(3.7766666666667)"><rect width="6" height="6"/></g>
<g transform="translate(286,308) scale(3.7766666666667)"><rect width="6" height="6"/></g>
<g transform="translate(374,308) scale(3.7766666666667)"><rect width="6" height="6"/></g>
<g transform="translate(396,308) scale(3.7766666666667)"><rect width="6" height="6"/></g>
<g transform="translate(440,308) scale(3.7766666666667)"><rect width="6" height="6"/></g>
<g transform="translate(462,308) scale(3.7766666666667)"><rect width="6" height="6"/></g>
<g transform="translate(484,308) scale(3.7766666666667)"><rect width="6" height="6"/></g>
<g transform="translate(528,308) scale(3.7766666666667)"><rect width="6" height="6"/></g>
<g transform="translate(550,308) scale(3.7766666666667)"><rect width="6" height="6"/></g>
<g transform="translate(572,308) scale(3.7766666666667)"><rect width="6" height="6"/></g>
<g transform="translate(594,308) scale(3.7766666666667)"><rect width="6" height="6"/></g>
<g transform="translate(616,308) scale(3.7766666666667)"><rect width="6" height="6"/></g>
<g transform="translate(638,308) scale(3.7766666666667)"><rect width="6" height="6"/></g>
<g transform="translate(682,308) scale(3.7766666666667)"><rect width="6" height="6"/></g>
<g transform="translate(704,308) scale(3.7766666666667)"><rect width="6" height="6"/></g>
<g transform="translate(726,308) scale(3.7766666666667)"><rect width="6" height="6"/></g>
<g transform="translate(814,308) scale(3.7766666666667)"><rect width="6" height="6"/></g>
<g transform="translate(858,308) scale(3.7766666666667)"><rect width="6" height="6"/></g>
<g transform="translate(880,308) scale(3.7766666666667)"><rect width="6" height="6"/></g>
<g transform="translate(44,330) scale(3.7766666666667)"><rect width="6" height="6"/></g>
<g transform="translate(132,330) scale(3.7766666666667)"><rect width="6" height="6"/></g>
<g transform="translate(154,330) scale(3.7766666666667)"><rect width="6" height="6"/></g>
<g transform="translate(198,330) scale(3.7766666666667)"><rect width="6" height="6"/></g>
<g transform="translate(242,330) scale(3.7766666666667)"><rect width="6" height="6"/></g>
<g transform="translate(330,330) scale(3.7766666666667)"><rect width="6" height="6"/></g>
<g transform="translate(352,330) scale(3.7766666666667)"><rect width="6" height="6"/></g>
<g transform="translate(396,330) scale(3.7766666666667)"><rect width="6" height="6"/></g>
<g transform="translate(506,330) scale(3.7766666666667)"><rect width="6" height="6"/></g>
<g transform="translate(638,330) scale(3.7766666666667)"><rect width="6" height="6"/></g>
<g transform="translate(704,330) scale(3.7766666666667)"><rect width="6" height="6"/></g>
<g transform="translate(726,330) scale(3.7766666666667)"><rect width="6" height="6"/></g>
<g transform="translate(836,330) scale(3.7766666666667)"><rect width="6" height="6"/></g>
<g transform="translate(858,330) scale(3.7766666666667)"><rect width="6" height="6"/></g>
<g transform="translate(902,330) scale(3.7766666666667)"><rect width="6" height="6"/></g>
<g transform="translate(132,352) scale(3.7766666666667)"><rect width="6" height="6"/></g>
<g transform="translate(176,352) scale(3.7766666666667)"><rect width="6" height="6"/></g>
<g transform="translate(264,352) scale(3.7766666666667)"><rect width="6" height="6"/></g>
<g transform="translate(286,352) scale(3.7766666666667)"><rect width="6" height="6"/></g>
<g transform="translate(374,352) scale(3.7766666666667)"><rect width="6" height="6"/></g>
<g transform="translate(396,352) scale(3.7766666666667)"><rect width="6" height="6"/></g>
<g transform="translate(418,352) scale(3.7766666666667)"><rect width="6" height="6"/></g>
<g transform="translate(484,352) scale(3.7766666666667)"><rect width="6" height="6"/></g>
<g transform="translate(528,352) scale(3.7766666666667)"><rect width="6" height="6"/></g>
<g transform="translate(550,352) scale(3.7766666666667)"><rect width="6" height="6"/></g>
<g transform="translate(572,352) scale(3.7766666666667)"><rect width="6" height="6"/></g>
<g transform="translate(594,352) scale(3.7766666666667)"><rect width="6" height="6"/></g>
<g transform="translate(616,352) scale(3.7766666666667)"><rect width="6" height="6"/></g>
<g transform="translate(638,352) scale(3.7766666666667)"><rect width="6" height="6"/></g>
<g transform="translate(660,352) scale(3.7766666666667)"><rect width="6" height="6"/></g>
<g transform="translate(682,352) scale(3.7766666666667)"><rect width="6" height="6"/></g>
<g transform="translate(748,352) scale(3.7766666666667)"><rect width="6" height="6"/></g>
<g transform="translate(770,352) scale(3.7766666666667)"><rect width="6" height="6"/></g>
<g transform="translate(836,352) scale(3.7766666666667)"><rect width="6" height="6"/></g>
<g transform="translate(154,374) scale(3.7766666666667)"><rect width="6" height="6"/></g>
<g transform="translate(198,374) scale(3.7766666666667)"><rect width="6" height="6"/></g>
<g transform="translate(220,374) scale(3.7766666666667)"><rect width="6" height="6"/></g>
<g transform="translate(286,374) scale(3.7766666666667)"><rect width="6" height="6"/></g>
<g transform="translate(352,374) scale(3.7766666666667)"><rect width="6" height="6"/></g>
<g transform="translate(374,374) scale(3.7766666666667)"><rect width="6" height="6"/></g>
<g transform="translate(418,374) scale(3.7766666666667)"><rect width="6" height="6"/></g>
<g transform="translate(440,374) scale(3.7766666666667)"><rect width="6" height="6"/></g>
<g transform="translate(506,374) scale(3.7766666666667)"><rect width="6" height="6"/></g>
<g transform="translate(550,374) scale(3.7766666666667)"><rect width="6" height="6"/></g>
<g transform="translate(660,374) scale(3.7766666666667)"><rect width="6" height="6"/></g>
<g transform="translate(682,374) scale(3.7766666666667)"><rect width="6" height="6"/></g>
<g transform="translate(704,374) scale(3.7766666666667)"><rect width="6" height="6"/></g>
<g transform="translate(726,374) scale(3.7766666666667)"><rect width="6" height="6"/></g>
<g transform="translate(792,374) scale(3.7766666666667)"><rect width="6" height="6"/></g>
<g transform="translate(836,374) scale(3.7766666666667)"><rect width="6" height="6"/></g>
<g transform="translate(858,374) scale(3.7766666666667)"><rect width="6" height="6"/></g>
<g transform="translate(902,374) scale(3.7766666666667)"><rect width="6" height="6"/></g>
<g transform="translate(66,396) scale(3.7766666666667)"><rect width="6" height="6"/></g>
<g transform="translate(110,396) scale(3.7766666666667)"><rect width="6" height="6"/></g>
<g transform="translate(176,396) scale(3.7766666666667)"><rect width="6" height="6"/></g>
<g transform="translate(220,396) scale(3.7766666666667)"><rect width="6" height="6"/></g>
<g transform="translate(242,396) scale(3.7766666666667)"><rect width="6" height="6"/></g>
<g transform="translate(264,396) scale(3.7766666666667)"><rect width="6" height="6"/></g>
<g transform="translate(330,396) scale(3.7766666666667)"><rect width="6" height="6"/></g>
<g transform="translate(374,396) scale(3.7766666666667)"><rect width="6" height="6"/></g>
<g transform="translate(440,396) scale(3.7766666666667)"><rect width="6" height="6"/></g>
<g transform="translate(484,396) scale(3.7766666666667)"><rect width="6" height="6"/></g>
<g transform="translate(528,396) scale(3.7766666666667)"><rect width="6" height="6"/></g>
<g transform="translate(550,396) scale(3.7766666666667)"><rect width="6" height="6"/></g>
<g transform="translate(572,396) scale(3.7766666666667)"><rect width="6" height="6"/></g>
<g transform="translate(616,396) scale(3.7766666666667)"><rect width="6" height="6"/></g>
<g transform="translate(638,396) scale(3.7766666666667)"><rect width="6" height="6"/></g>
<g transform="translate(770,396) scale(3.7766666666667)"><rect width="6" height="6"/></g>
<g transform="translate(814,396) scale(3.7766666666667)"><rect width="6" height="6"/></g>
<g transform="translate(858,396) scale(3.7766666666667)"><rect width="6" height="6"/></g>
<g transform="translate(880,396) scale(3.7766666666667)"><rect width="6" height="6"/></g>
<g transform="translate(44,418) scale(3.7766666666667)"><rect width="6" height="6"/></g>
<g transform="translate(66,418) scale(3.7766666666667)"><rect width="6" height="6"/></g>
<g transform="translate(88,418) scale(3.7766666666667)"><rect width="6" height="6"/></g>
<g transform="translate(110,418) scale(3.7766666666667)"><rect width="6" height="6"/></g>
<g transform="translate(198,418) scale(3.7766666666667)"><rect width="6" height="6"/></g>
<g transform="translate(242,418) scale(3.7766666666667)"><rect width="6" height="6"/></g>
<g transform="translate(374,418) scale(3.7766666666667)"><rect width="6" height="6"/></g>
<g transform="translate(396,418) scale(3.7766666666667)"><rect width="6" height="6"/></g>
<g transform="translate(440,418) scale(3.7766666666667)"><rect width="6" height="6"/></g>
<g transform="translate(462,418) scale(3.7766666666667)"><rect width="6" height="6"/></g>
<g transform="translate(616,418) scale(3.7766666666667)"><rect width="6" height="6"/></g>
<g transform="translate(660,418) scale(3.7766666666667)"><rect width="6" height="6"/></g>
<g transform="translate(704,418) scale(3.7766666666667)"><rect width="6" height="6"/></g>
<g transform="translate(792,418) scale(3.7766666666667)"><rect width="6" height="6"/></g>
<g transform="translate(814,418) scale(3.7766666666667)"><rect width="6" height="6"/></g>
<g transform="translate(836,418) scale(3.7766666666667)"><rect width="6" height="6"/></g>
<g transform="translate(902,418) scale(3.7766666666667)"><rect width="6" height="6"/></g>
<g transform="translate(924,418) scale(3.7766666666667)"><rect width="6" height="6"/></g>
<g transform="translate(66,440) scale(3.7766666666667)"><rect width="6" height="6"/></g>
<g transform="translate(110,440) scale(3.7766666666667)"><rect width="6" height="6"/></g>
<g transform="translate(154,440) scale(3.7766666666667)"><rect width="6" height="6"/></g>
<g transform="translate(176,440) scale(3.7766666666667)"><rect width="6" height="6"/></g>
<g transform="translate(220,440) scale(3.7766666666667)"><rect width="6" height="6"/></g>
<g transform="translate(286,440) scale(3.7766666666667)"><rect width="6" height="6"/></g>
<g transform="translate(352,440) scale(3.7766666666667)"><rect width="6" height="6"/></g>
<g transform="translate(374,440) scale(3.7766666666667)"><rect width="6" height="6"/></g>
<g transform="translate(440,440) scale(3.7766666666667)"><rect width="6" height="6"/></g>
<g transform="translate(462,440) scale(3.7766666666667)"><rect width="6" height="6"/></g>
<g transform="translate(528,440) scale(3.7766666666667)"><rect width="6" height="6"/></g>
<g transform="translate(550,440) scale(3.7766666666667)"><rect width="6" height="6"/></g>
<g transform="translate(572,440) scale(3.7766666666667)"><rect width="6" height="6"/></g>
<g transform="translate(682,440) scale(3.7766666666667)"><rect width="6" height="6"/></g>
<g transform="translate(726,440) scale(3.7766666666667)"><rect width="6" height="6"/></g>
<g transform="translate(770,440) scale(3.7766666666667)"><rect width="6" height="6"/></g>
<g transform="translate(792,440) scale(3.7766666666667)"><rect width="6" height="6"/></g>
<g transform="translate(836,440) scale(3.7766666666667)"><rect width="6" height="6"/></g>
<g transform="translate(858,440) scale(3.7766666666667)"><rect width="6" height="6"/></g>
<g transform="translate(880,440) scale(3.7766666666667)"><rect width="6" height="6"/></g>
<g transform="translate(44,462) scale(3.7766666666667)"><rect width="6" height="6"/></g>
<g transform="translate(66,462) scale(3.7766666666667)"><rect width="6" height="6"/></g>
<g transform="translate(132,462) scale(3.7766666666667)"><rect width="6" height="6"/></g>
<g transform="translate(198,462) scale(3.7766666666667)"><rect width="6" height="6"/></g>
<g transform="translate(242,462) scale(3.7766666666667)"><rect width="6" height="6"/></g>
<g transform="translate(352,462) scale(3.7766666666667)"><rect width="6" height="6"/></g>
<g transform="translate(462,462) scale(3.7766666666667)"><rect width="6" height="6"/></g>
<g transform="translate(484,462) scale(3.7766666666667)"><rect width="6" height="6"/></g>
<g transform="translate(550,462) scale(3.7766666666667)"><rect width="6" height="6"/></g>
<g transform="translate(660,462) scale(3.7766666666667)"><rect width="6" height="6"/></g>
<g transform="translate(704,462) scale(3.7766666666667)"><rect width="6" height="6"/></g>
<g transform="translate(726,462) scale(3.7766666666667)"><rect width="6" height="6"/></g>
<g transform="translate(748,462) scale(3.7766666666667)"><rect width="6" height="6"/></g>
<g transform="translate(836,462) scale(3.7766666666667)"><rect width="6" height="6"/></g>
<g transform="translate(924,462) scale(3.7766666666667)"><rect width="6" height="6"/></g>
<g transform="translate(44,484) scale(3.7766666666667)"><rect width="6" height="6"/></g>
<g transform="translate(88,484) scale(3.7766666666667)"><rect width="6" height="6"/></g>
<g transform="translate(110,484) scale(3.7766666666667)"><rect width="6" height="6"/></g>
<g transform="translate(132,484) scale(3.7766666666667)"><rect width="6" height="6"/></g>
<g transform="translate(154,484) scale(3.7766666666667)"><rect width="6" height="6"/></g>
<g transform="translate(176,484) scale(3.7766666666667)"><rect width="6" height="6"/></g>
<g transform="translate(242,484) scale(3.7766666666667)"><rect width="6" height="6"/></g>
<g transform="translate(352,484) scale(3.7766666666667)"><rect width="6" height="6"/></g>
<g transform="translate(396,484) scale(3.7766666666667)"><rect width="6" height="6"/></g>
<g transform="translate(440,484) scale(3.7766666666667)"><rect width="6" height="6"/></g>
<g transform="translate(506,484) scale(3.7766666666667)"><rect width="6" height="6"/></g>
<g transform="translate(528,484) scale(3.7766666666667)"><rect width="6" height="6"/></g>
<g transform="translate(638,484) scale(3.7766666666667)"><rect width="6" height="6"/></g>
<g transform="translate(682,484) scale(3.7766666666667)"><rect width="6" height="6"/></g>
<g transform="translate(704,484) scale(3.7766666666667)"><rect width="6" height="6"/></g>
<g transform="translate(924,484) scale(3.7766666666667)"><rect width="6" height="6"/></g>
<g transform="translate(66,506) scale(3.7766666666667)"><rect width="6" height="6"/></g>
<g transform="translate(132,506) scale(3.7766666666667)"><rect width="6" height="6"/></g>
<g transform="translate(154,506) scale(3.7766666666667)"><rect width="6" height="6"/></g>
<g transform="translate(198,506) scale(3.7766666666667)"><rect width="6" height="6"/></g>
<g transform="translate(220,506) scale(3.7766666666667)"><rect width="6" height="6"/></g>
<g transform="translate(264,506) scale(3.7766666666667)"><rect width="6" height="6"/></g>
<g transform="translate(308,506) scale(3.7766666666667)"><rect width="6" height="6"/></g>
<g transform="translate(374,506) scale(3.7766666666667)"><rect width="6" height="6"/></g>
<g transform="translate(396,506) scale(3.7766666666667)"><rect width="6" height="6"/></g>
<g transform="translate(418,506) scale(3.7766666666667)"><rect width="6" height="6"/></g>
<g transform="translate(462,506) scale(3.7766666666667)"><rect width="6" height="6"/></g>
<g transform="translate(506,506) scale(3.7766666666667)"><rect width="6" height="6"/></g>
<g transform="translate(550,506) scale(3.7766666666667)"><rect width="6" height="6"/></g>
<g transform="translate(594,506) scale(3.7766666666667)"><rect width="6" height="6"/></g>
<g transform="translate(660,506) scale(3.7766666666667)"><rect width="6" height="6"/></g>
<g transform="translate(704,506) scale(3.7766666666667)"><rect width="6" height="6"/></g>
<g transform="translate(726,506) scale(3.7766666666667)"><rect width="6" height="6"/></g>
<g transform="translate(748,506) scale(3.7766666666667)"><rect width="6" height="6"/></g>
<g transform="translate(792,506) scale(3.7766666666667)"><rect width="6" height="6"/></g>
<g transform="translate(814,506) scale(3.7766666666667)"><rect width="6" height="6"/></g>
<g transform="translate(836,506) scale(3.7766666666667)"><rect width="6" height="6"/></g>
<g transform="translate(858,506) scale(3.7766666666667)"><rect width="6" height="6"/></g>
<g transform="translate(902,506) scale(3.7766666666667)"><rect width="6" height="6"/></g>
<g transform="translate(924,506) scale(3.7766666666667)"><rect width="6" height="6"/></g>
<g transform="translate(44,528) scale(3.7766666666667)"><rect width="6" height="6"/></g>
<g transform="translate(88,528) scale(3.7766666666667)"><rect width="6" height="6"/></g>
<g transform="translate(110,528) scale(3.7766666666667)"><rect width="6" height="6"/></g>
<g transform="translate(154,528) scale(3.7766666666667)"><rect width="6" height="6"/></g>
<g transform="translate(176,528) scale(3.7766666666667)"><rect width="6" height="6"/></g>
<g transform="translate(198,528) scale(3.7766666666667)"><rect width="6" height="6"/></g>
<g transform="translate(220,528) scale(3.7766666666667)"><rect width="6" height="6"/></g>
<g transform="translate(308,528) scale(3.7766666666667)"><rect width="6" height="6"/></g>
<g transform="translate(330,528) scale(3.7766666666667)"><rect width="6" height="6"/></g>
<g transform="translate(374,528) scale(3.7766666666667)"><rect width="6" height="6"/></g>
<g transform="translate(418,528) scale(3.7766666666667)"><rect width="6" height="6"/></g>
<g transform="translate(506,528) scale(3.7766666666667)"><rect width="6" height="6"/></g>
<g transform="translate(594,528) scale(3.7766666666667)"><rect width="6" height="6"/></g>
<g transform="translate(616,528) scale(3.7766666666667)"><rect width="6" height="6"/></g>
<g transform="translate(638,528) scale(3.7766666666667)"><rect width="6" height="6"/></g>
<g transform="translate(660,528) scale(3.7766666666667)"><rect width="6" height="6"/></g>
<g transform="translate(770,528) scale(3.7766666666667)"><rect width="6" height="6"/></g>
<g transform="translate(814,528) scale(3.7766666666667)"><rect width="6" height="6"/></g>
<g transform="translate(880,528) scale(3.7766666666667)"><rect width="6" height="6"/></g>
<g transform="translate(66,550) scale(3.7766666666667)"><rect width="6" height="6"/></g>
<g transform="translate(132,550) scale(3.7766666666667)"><rect width="6" height="6"/></g>
<g transform="translate(154,550) scale(3.7766666666667)"><rect width="6" height="6"/></g>
<g transform="translate(198,550) scale(3.7766666666667)"><rect width="6" height="6"/></g>
<g transform="translate(220,550) scale(3.7766666666667)"><rect width="6" height="6"/></g>
<g transform="translate(242,550) scale(3.7766666666667)"><rect width="6" height="6"/></g>
<g transform="translate(308,550) scale(3.7766666666667)"><rect width="6" height="6"/></g>
<g transform="translate(330,550) scale(3.7766666666667)"><rect width="6" height="6"/></g>
<g transform="translate(352,550) scale(3.7766666666667)"><rect width="6" height="6"/></g>
<g transform="translate(396,550) scale(3.7766666666667)"><rect width="6" height="6"/></g>
<g transform="translate(484,550) scale(3.7766666666667)"><rect width="6" height="6"/></g>
<g transform="translate(506,550) scale(3.7766666666667)"><rect width="6" height="6"/></g>
<g transform="translate(528,550) scale(3.7766666666667)"><rect width="6" height="6"/></g>
<g transform="translate(616,550) scale(3.7766666666667)"><rect width="6" height="6"/></g>
<g transform="translate(638,550) scale(3.7766666666667)"><rect width="6" height="6"/></g>
<g transform="translate(660,550) scale(3.7766666666667)"><rect width="6" height="6"/></g>
<g transform="translate(726,550) scale(3.7766666666667)"><rect width="6" height="6"/></g>
<g transform="translate(748,550) scale(3.7766666666667)"><rect width="6" height="6"/></g>
<g transform="translate(770,550) scale(3.7766666666667)"><rect width="6" height="6"/></g>
<g transform="translate(792,550) scale(3.7766666666667)"><rect width="6" height="6"/></g>
<g transform="translate(814,550) scale(3.7766666666667)"><rect width="6" height="6"/></g>
<g transform="translate(836,550) scale(3.7766666666667)"><rect width="6" height="6"/></g>
<g transform="translate(924,550) scale(3.7766666666667)"><rect width="6" height="6"/></g>
<g transform="translate(110,572) scale(3.7766666666667)"><rect width="6" height="6"/></g>
<g transform="translate(176,572) scale(3.7766666666667)"><rect width="6" height="6"/></g>
<g transform="translate(220,572) scale(3.7766666666667)"><rect width="6" height="6"/></g>
<g transform="translate(286,572) scale(3.7766666666667)"><rect width="6" height="6"/></g>
<g transform="translate(308,572) scale(3.7766666666667)"><rect width="6" height="6"/></g>
<g transform="translate(352,572) scale(3.7766666666667)"><rect width="6" height="6"/></g>
<g transform="translate(374,572) scale(3.7766666666667)"><rect width="6" height="6"/></g>
<g transform="translate(418,572) scale(3.7766666666667)"><rect width="6" height="6"/></g>
<g transform="translate(528,572) scale(3.7766666666667)"><rect width="6" height="6"/></g>
<g transform="translate(572,572) scale(3.7766666666667)"><rect width="6" height="6"/></g>
<g transform="translate(594,572) scale(3.7766666666667)"><rect width="6" height="6"/></g>
<g transform="translate(616,572) scale(3.7766666666667)"><rect width="6" height="6"/></g>
<g transform="translate(682,572) scale(3.7766666666667)"><rect width="6" height="6"/></g>
<g transform="translate(792,572) scale(3.7766666666667)"><rect width="6" height="6"/></g>
<g transform="translate(836,572) scale(3.7766666666667)"><rect width="6" height="6"/></g>
<g transform="translate(858,572) scale(3.7766666666667)"><rect width="6" height="6"/></g>
<g transform="translate(902,572) scale(3.7766666666667)"><rect width="6" height="6"/></g>
<g transform="translate(44,594) scale(3.7766666666667)"><rect width="6" height="6"/></g>
<g transform="translate(66,594) scale(3.7766666666667)"><rect width="6" height="6"/></g>
<g transform="translate(110,594) scale(3.7766666666667)"><rect width="6" height="6"/></g>
<g transform="translate(198,594) scale(3.7766666666667)"><rect width="6" height="6"/></g>
<g transform="translate(220,594) scale(3.7766666666667)"><rect width="6" height="6"/></g>
<g transform="translate(242,594) scale(3.7766666666667)"><rect width="6" height="6"/></g>
<g transform="translate(264,594) scale(3.7766666666667)"><rect width="6" height="6"/></g>
<g transform="translate(308,594) scale(3.7766666666667)"><rect width="6" height="6"/></g>
<g transform="translate(330,594) scale(3.7766666666667)"><rect width="6" height="6"/></g>
<g transform="translate(352,594) scale(3.7766666666667)"><rect width="6" height="6"/></g>
<g transform="translate(374,594) scale(3.7766666666667)"><rect width="6" height="6"/></g>
<g transform="translate(440,594) scale(3.7766666666667)"><rect width="6" height="6"/></g>
<g transform="translate(462,594) scale(3.7766666666667)"><rect width="6" height="6"/></g>
<g transform="translate(528,594) scale(3.7766666666667)"><rect width="6" height="6"/></g>
<g transform="translate(550,594) scale(3.7766666666667)"><rect width="6" height="6"/></g>
<g transform="translate(616,594) scale(3.7766666666667)"><rect width="6" height="6"/></g>
<g transform="translate(660,594) scale(3.7766666666667)"><rect width="6" height="6"/></g>
<g transform="translate(682,594) scale(3.7766666666667)"><rect width="6" height="6"/></g>
<g transform="translate(726,594) scale(3.7766666666667)"><rect width="6" height="6"/></g>
<g transform="translate(792,594) scale(3.7766666666667)"><rect width="6" height="6"/></g>
<g transform="translate(814,594) scale(3.7766666666667)"><rect width="6" height="6"/></g>
<g transform="translate(836,594) scale(3.7766666666667)"><rect width="6" height="6"/></g>
<g transform="translate(858,594) scale(3.7766666666667)"><rect width="6" height="6"/></g>
<g transform="translate(924,594) scale(3.7766666666667)"><rect width="6" height="6"/></g>
<g transform="translate(88,616) scale(3.7766666666667)"><rect width="6" height="6"/></g>
<g transform="translate(154,616) scale(3.7766666666667)"><rect width="6" height="6"/></g>
<g transform="translate(176,616) scale(3.7766666666667)"><rect width="6" height="6"/></g>
<g transform="translate(220,616) scale(3.7766666666667)"><rect width="6" height="6"/></g>
<g transform="translate(264,616) scale(3.7766666666667)"><rect width="6" height="6"/></g>
<g transform="translate(352,616) scale(3.7766666666667)"><rect width="6" height="6"/></g>
<g transform="translate(396,616) scale(3.7766666666667)"><rect width="6" height="6"/></g>
<g transform="translate(440,616) scale(3.7766666666667)"><rect width="6" height="6"/></g>
<g transform="translate(484,616) scale(3.7766666666667)"><rect width="6" height="6"/></g>
<g transform="translate(528,616) scale(3.7766666666667)"><rect width="6" height="6"/></g>
<g transform="translate(572,616) scale(3.7766666666667)"><rect width="6" height="6"/></g>
<g transform="translate(616,616) scale(3.7766666666667)"><rect width="6" height="6"/></g>
<g transform="translate(638,616) scale(3.7766666666667)"><rect width="6" height="6"/></g>
<g transform="translate(682,616) scale(3.7766666666667)"><rect width="6" height="6"/></g>
<g transform="translate(748,616) scale(3.7766666666667)"><rect width="6" height="6"/></g>
<g transform="translate(814,616) scale(3.7766666666667)"><rect width="6" height="6"/></g>
<g transform="translate(88,638) scale(3.7766666666667)"><rect width="6" height="6"/></g>
<g transform="translate(110,638) scale(3.7766666666667)"><rect width="6" height="6"/></g>
<g transform="translate(132,638) scale(3.7766666666667)"><rect width="6" height="6"/></g>
<g transform="translate(264,638) scale(3.7766666666667)"><rect width="6" height="6"/></g>
<g transform="translate(286,638) scale(3.7766666666667)"><rect width="6" height="6"/></g>
<g transform="translate(308,638) scale(3.7766666666667)"><rect width="6" height="6"/></g>
<g transform="translate(330,638) scale(3.7766666666667)"><rect width="6" height="6"/></g>
<g transform="translate(352,638) scale(3.7766666666667)"><rect width="6" height="6"/></g>
<g transform="translate(374,638) scale(3.7766666666667)"><rect width="6" height="6"/></g>
<g transform="translate(440,638) scale(3.7766666666667)"><rect width="6" height="6"/></g>
<g transform="translate(506,638) scale(3.7766666666667)"><rect width="6" height="6"/></g>
<g transform="translate(528,638) scale(3.7766666666667)"><rect width="6" height="6"/></g>
<g transform="translate(616,638) scale(3.7766666666667)"><rect width="6" height="6"/></g>
<g transform="translate(660,638) scale(3.7766666666667)"><rect width="6" height="6"/></g>
<g transform="translate(726,638) scale(3.7766666666667)"><rect width="6" height="6"/></g>
<g transform="translate(748,638) scale(3.7766666666667)"><rect width="6" height="6"/></g>
<g transform="translate(792,638) scale(3.7766666666667)"><rect width="6" height="6"/></g>
<g transform="translate(836,638) scale(3.7766666666667)"><rect width="6" height="6"/></g>
<g transform="translate(858,638) scale(3.7766666666667)"><rect width="6" height="6"/></g>
<g transform="translate(902,638) scale(3.7766666666667)"><rect width="6" height="6"/></g>
<g transform="translate(924,638) scale(3.7766666666667)"><rect width="6" height="6"/></g>
<g transform="translate(44,660) scale(3.7766666666667)"><rect width="6" height="6"/></g>
<g transform="translate(88,660) scale(3.7766666666667)"><rect width="6" height="6"/></g>
<g transform="translate(110,660) scale(3.7766666666667)"><rect width="6" height="6"/></g>
<g transform="translate(132,660) scale(3.7766666666667)"><rect width="6" height="6"/></g>
<g transform="translate(154,660) scale(3.7766666666667)"><rect width="6" height="6"/></g>
<g transform="translate(176,660) scale(3.7766666666667)"><rect width="6" height="6"/></g>
<g transform="translate(220,660) scale(3.7766666666667)"><rect width="6" height="6"/></g>
<g transform="translate(242,660) scale(3.7766666666667)"><rect width="6" height="6"/></g>
<g transform="translate(264,660) scale(3.7766666666667)"><rect width="6" height="6"/></g>
<g transform="translate(286,660) scale(3.7766666666667)"><rect width="6" height="6"/></g>
<g transform="translate(330,660) scale(3.7766666666667)"><rect width="6" height="6"/></g>
<g transform="translate(396,660) scale(3.7766666666667)"><rect width="6" height="6"/></g>
<g transform="translate(418,660) scale(3.7766666666667)"><rect width="6" height="6"/></g>
<g transform="translate(440,660) scale(3.7766666666667)"><rect width="6" height="6"/></g>
<g transform="translate(462,660) scale(3.7766666666667)"><rect width="6" height="6"/></g>
<g transform="translate(528,660) scale(3.7766666666667)"><rect width="6" height="6"/></g>
<g transform="translate(594,660) scale(3.7766666666667)"><rect width="6" height="6"/></g>
<g transform="translate(682,660) scale(3.7766666666667)"><rect width="6" height="6"/></g>
<g transform="translate(726,660) scale(3.7766666666667)"><rect width="6" height="6"/></g>
<g transform="translate(748,660) scale(3.7766666666667)"><rect width="6" height="6"/></g>
<g transform="translate(770,660) scale(3.7766666666667)"><rect width="6" height="6"/></g>
<g transform="translate(814,660) scale(3.7766666666667)"><rect width="6" height="6"/></g>
<g transform="translate(858,660) scale(3.7766666666667)"><rect width="6" height="6"/></g>
<g transform="translate(880,660) scale(3.7766666666667)"><rect width="6" height="6"/></g>
<g transform="translate(44,682) scale(3.7766666666667)"><rect width="6" height="6"/></g>
<g transform="translate(154,682) scale(3.7766666666667)"><rect width="6" height="6"/></g>
<g transform="translate(198,682) scale(3.7766666666667)"><rect width="6" height="6"/></g>
<g transform="translate(220,682) scale(3.7766666666667)"><rect width="6" height="6"/></g>
<g transform="translate(264,682) scale(3.7766666666667)"><rect width="6" height="6"/></g>
<g transform="translate(352,682) scale(3.7766666666667)"><rect width="6" height="6"/></g>
<g transform="translate(396,682) scale(3.7766666666667)"><rect width="6" height="6"/></g>
<g transform="translate(440,682) scale(3.7766666666667)"><rect width="6" height="6"/></g>
<g transform="translate(484,682) scale(3.7766666666667)"><rect width="6" height="6"/></g>
<g transform="translate(506,682) scale(3.7766666666667)"><rect width="6" height="6"/></g>
<g transform="translate(572,682) scale(3.7766666666667)"><rect width="6" height="6"/></g>
<g transform="translate(704,682) scale(3.7766666666667)"><rect width="6" height="6"/></g>
<g transform="translate(726,682) scale(3.7766666666667)"><rect width="6" height="6"/></g>
<g transform="translate(792,682) scale(3.7766666666667)"><rect width="6" height="6"/></g>
<g transform="translate(836,682) scale(3.7766666666667)"><rect width="6" height="6"/></g>
<g transform="translate(880,682) scale(3.7766666666667)"><rect width="6" height="6"/></g>
<g transform="translate(902,682) scale(3.7766666666667)"><rect width="6" height="6"/></g>
<g transform="translate(924,682) scale(3.7766666666667)"><rect width="6" height="6"/></g>
<g transform="translate(44,704) scale(3.7766666666667)"><rect width="6" height="6"/></g>
<g transform="translate(176,704) scale(3.7766666666667)"><rect width="6" height="6"/></g>
<g transform="translate(264,704) scale(3.7766666666667)"><rect width="6" height="6"/></g>
<g transform="translate(286,704) scale(3.7766666666667)"><rect width="6" height="6"/></g>
<g transform="translate(308,704) scale(3.7766666666667)"><rect width="6" height="6"/></g>
<g transform="translate(418,704) scale(3.7766666666667)"><rect width="6" height="6"/></g>
<g transform="translate(462,704) scale(3.7766666666667)"><rect width="6" height="6"/></g>
<g transform="translate(528,704) scale(3.7766666666667)"><rect width="6" height="6"/></g>
<g transform="translate(594,704) scale(3.7766666666667)"><rect width="6" height="6"/></g>
<g transform="translate(616,704) scale(3.7766666666667)"><rect width="6" height="6"/></g>
<g transform="translate(682,704) scale(3.7766666666667)"><rect width="6" height="6"/></g>
<g transform="translate(770,704) scale(3.7766666666667)"><rect width="6" height="6"/></g>
<g transform="translate(792,704) scale(3.7766666666667)"><rect width="6" height="6"/></g>
<g transform="translate(880,704) scale(3.7766666666667)"><rect width="6" height="6"/></g>
<g transform="translate(902,704) scale(3.7766666666667)"><rect width="6" height="6"/></g>
<g transform="translate(924,704) scale(3.7766666666667)"><rect width="6" height="6"/></g>
<g transform="translate(44,726) scale(3.7766666666667)"><rect width="6" height="6"/></g>
<g transform="translate(132,726) scale(3.7766666666667)"><rect width="6" height="6"/></g>
<g transform="translate(198,726) scale(3.7766666666667)"><rect width="6" height="6"/></g>
<g transform="translate(242,726) scale(3.7766666666667)"><rect width="6" height="6"/></g>
<g transform="translate(286,726) scale(3.7766666666667)"><rect width="6" height="6"/></g>
<g transform="translate(330,726) scale(3.7766666666667)"><rect width="6" height="6"/></g>
<g transform="translate(352,726) scale(3.7766666666667)"><rect width="6" height="6"/></g>
<g transform="translate(396,726) scale(3.7766666666667)"><rect width="6" height="6"/></g>
<g transform="translate(418,726) scale(3.7766666666667)"><rect width="6" height="6"/></g>
<g transform="translate(440,726) scale(3.7766666666667)"><rect width="6" height="6"/></g>
<g transform="translate(462,726) scale(3.7766666666667)"><rect width="6" height="6"/></g>
<g transform="translate(484,726) scale(3.7766666666667)"><rect width="6" height="6"/></g>
<g transform="translate(506,726) scale(3.7766666666667)"><rect width="6" height="6"/></g>
<g transform="translate(572,726) scale(3.7766666666667)"><rect width="6" height="6"/></g>
<g transform="translate(616,726) scale(3.7766666666667)"><rect width="6" height="6"/></g>
<g transform="translate(660,726) scale(3.7766666666667)"><rect width="6" height="6"/></g>
<g transform="translate(682,726) scale(3.7766666666667)"><rect width="6" height="6"/></g>
<g transform="translate(704,726) scale(3.7766666666667)"><rect width="6" height="6"/></g>
<g transform="translate(726,726) scale(3.7766666666667)"><rect width="6" height="6"/></g>
<g transform="translate(748,726) scale(3.7766666666667)"><rect width="6" height="6"/></g>
<g transform="translate(770,726) scale(3.7766666666667)"><rect width="6" height="6"/></g>
<g transform="translate(792,726) scale(3.7766666666667)"><rect width="6" height="6"/></g>
<g transform="translate(836,726) scale(3.7766666666667)"><rect width="6" height="6"/></g>
<g transform="translate(902,726) scale(3.7766666666667)"><rect width="6" height="6"/></g>
<g transform="translate(44,748) scale(3.7766666666667)"><rect width="6" height="6"/></g>
<g transform="translate(88,748) scale(3.7766666666667)"><rect width="6" height="6"/></g>
<g transform="translate(110,748) scale(3.7766666666667)"><rect width="6" height="6"/></g>
<g transform="translate(132,748) scale(3.7766666666667)"><rect width="6" height="6"/></g>
<g transform="translate(154,748) scale(3.7766666666667)"><rect width="6" height="6"/></g>
<g transform="translate(176,748) scale(3.7766666666667)"><rect width="6" height="6"/></g>
<g transform="translate(198,748) scale(3.7766666666667)"><rect width="6" height="6"/></g>
<g transform="translate(264,748) scale(3.7766666666667)"><rect width="6" height="6"/></g>
<g transform="translate(286,748) scale(3.7766666666667)"><rect width="6" height="6"/></g>
<g transform="translate(308,748) scale(3.7766666666667)"><rect width="6" height="6"/></g>
<g transform="translate(374,748) scale(3.7766666666667)"><rect width="6" height="6"/></g>
<g transform="translate(440,748) scale(3.7766666666667)"><rect width="6" height="6"/></g>
<g transform="translate(462,748) scale(3.7766666666667)"><rect width="6" height="6"/></g>
<g transform="translate(484,748) scale(3.7766666666667)"><rect width="6" height="6"/></g>
<g transform="translate(506,748) scale(3.7766666666667)"><rect width="6" height="6"/></g>
<g transform="translate(594,748) scale(3.7766666666667)"><rect width="6" height="6"/></g>
<g transform="translate(638,748) scale(3.7766666666667)"><rect width="6" height="6"/></g>
<g transform="translate(660,748) scale(3.7766666666667)"><rect width="6" height="6"/></g>
<g transform="translate(748,748) scale(3.7766666666667)"><rect width="6" height="6"/></g>
<g transform="translate(770,748) scale(3.7766666666667)"><rect width="6" height="6"/></g>
<g transform="translate(792,748) scale(3.7766666666667)"><rect width="6" height="6"/></g>
<g transform="translate(814,748) scale(3.7766666666667)"><rect width="6" height="6"/></g>
<g transform="translate(836,748) scale(3.7766666666667)"><rect width="6" height="6"/></g>
<g transform="translate(858,748) scale(3.7766666666667)"><rect width="6" height="6"/></g>
<g transform="translate(880,748) scale(3.7766666666667)"><rect width="6" height="6"/></g>
<g transform="translate(902,748) scale(3.7766666666667)"><rect width="6" height="6"/></g>
<g transform="translate(924,748) scale(3.7766666666667)"><rect width="6" height="6"/></g>
<g transform="translate(220,770) scale(3.7766666666667)"><rect width="6" height="6"/></g>
<g transform="translate(264,770) scale(3.7766666666667)"><rect width="6" height="6"/></g>
<g transform="translate(286,770) scale(3.7766666666667)"><rect width="6" height="6"/></g>
<g transform="translate(330,770) scale(3.7766666666667)"><rect width="6" height="6"/></g>
<g transform="translate(418,770) scale(3.7766666666667)"><rect width="6" height="6"/></g>
<g transform="translate(484,770) scale(3.7766666666667)"><rect width="6" height="6"/></g>
<g transform="translate(506,770) scale(3.7766666666667)"><rect width="6" height="6"/></g>
<g transform="translate(528,770) scale(3.7766666666667)"><rect width="6" height="6"/></g>
<g transform="translate(550,770) scale(3.7766666666667)"><rect width="6" height="6"/></g>
<g transform="translate(594,770) scale(3.7766666666667)"><rect width="6" height="6"/></g>
<g transform="translate(616,770) scale(3.7766666666667)"><rect width="6" height="6"/></g>
<g transform="translate(638,770) scale(3.7766666666667)"><rect width="6" height="6"/></g>
<g transform="translate(660,770) scale(3.7766666666667)"><rect width="6" height="6"/></g>
<g transform="translate(704,770) scale(3.7766666666667)"><rect width="6" height="6"/></g>
<g transform="translate(726,770) scale(3.7766666666667)"><rect width="6" height="6"/></g>
<g transform="translate(748,770) scale(3.7766666666667)"><rect width="6" height="6"/></g>
<g transform="translate(836,770) scale(3.7766666666667)"><rect width="6" height="6"/></g>
<g transform="translate(880,770) scale(3.7766666666667)"><rect width="6" height="6"/></g>
<g transform="translate(902,770) scale(3.7766666666667)"><rect width="6" height="6"/></g>
<g transform="translate(924,770) scale(3.7766666666667)"><rect width="6" height="6"/></g>
<g transform="translate(264,792) scale(3.7766666666667)"><rect width="6" height="6"/></g>
<g transform="translate(286,792) scale(3.7766666666667)"><rect width="6" height="6"/></g>
<g transform="translate(308,792) scale(3.7766666666667)"><rect width="6" height="6"/></g>
<g transform="translate(352,792) scale(3.7766666666667)"><rect width="6" height="6"/></g>
<g transform="translate(418,792) scale(3.7766666666667)"><rect width="6" height="6"/></g>
<g transform="translate(484,792) scale(3.7766666666667)"><rect width="6" height="6"/></g>
<g transform="translate(506,792) scale(3.7766666666667)"><rect width="6" height="6"/></g>
<g transform="translate(550,792) scale(3.7766666666667)"><rect width="6" height="6"/></g>
<g transform="translate(572,792) scale(3.7766666666667)"><rect width="6" height="6"/></g>
<g transform="translate(594,792) scale(3.7766666666667)"><rect width="6" height="6"/></g>
<g transform="translate(616,792) scale(3.7766666666667)"><rect width="6" height="6"/></g>
<g transform="translate(638,792) scale(3.7766666666667)"><rect width="6" height="6"/></g>
<g transform="translate(682,792) scale(3.7766666666667)"><rect width="6" height="6"/></g>
<g transform="translate(704,792) scale(3.7766666666667)"><rect width="6" height="6"/></g>
<g transform="translate(726,792) scale(3.7766666666667)"><rect width="6" height="6"/></g>
<g transform="translate(748,792) scale(3.7766666666667)"><rect width="6" height="6"/></g>
<g transform="translate(792,792) scale(3.7766666666667)"><rect width="6" height="6"/></g>
<g transform="translate(836,792) scale(3.7766666666667)"><rect width="6" height="6"/></g>
<g transform="translate(858,792) scale(3.7766666666667)"><rect width="6" height="6"/></g>
<g transform="translate(902,792) scale(3.7766666666667)"><rect width="6" height="6"/></g>
<g transform="translate(220,814) scale(3.7766666666667)"><rect width="6" height="6"/></g>
<g transform="translate(242,814) scale(3.7766666666667)"><rect width="6" height="6"/></g>
<g transform="translate(264,814) scale(3.7766666666667)"><rect width="6" height="6"/></g>
<g transform="translate(418,814) scale(3.7766666666667)"><rect width="6" height="6"/></g>
<g transform="translate(440,814) scale(3.7766666666667)"><rect width="6" height="6"/></g>
<g transform="translate(462,814) scale(3.7766666666667)"><rect width="6" height="6"/></g>
<g transform="translate(484,814) scale(3.7766666666667)"><rect width="6" height="6"/></g>
<g transform="translate(506,814) scale(3.7766666666667)"><rect width="6" height="6"/></g>
<g transform="translate(528,814) scale(3.7766666666667)"><rect width="6" height="6"/></g>
<g transform="translate(550,814) scale(3.7766666666667)"><rect width="6" height="6"/></g>
<g transform="translate(572,814) scale(3.7766666666667)"><rect width="6" height="6"/></g>
<g transform="translate(594,814) scale(3.7766666666667)"><rect width="6" height="6"/></g>
<g transform="translate(660,814) scale(3.7766666666667)"><rect width="6" height="6"/></g>
<g transform="translate(682,814) scale(3.7766666666667)"><rect width="6" height="6"/></g>
<g transform="translate(704,814) scale(3.7766666666667)"><rect width="6" height="6"/></g>
<g transform="translate(748,814) scale(3.7766666666667)"><rect width="6" height="6"/></g>
<g transform="translate(836,814) scale(3.7766666666667)"><rect width="6" height="6"/></g>
<g transform="translate(220,836) scale(3.7766666666667)"><rect width="6" height="6"/></g>
<g transform="translate(264,836) scale(3.7766666666667)"><rect width="6" height="6"/></g>
<g transform="translate(286,836) scale(3.7766666666667)"><rect width="6" height="6"/></g>
<g transform="translate(308,836) scale(3.7766666666667)"><rect width="6" height="6"/></g>
<g transform="translate(330,836) scale(3.7766666666667)"><rect width="6" height="6"/></g>
<g transform="translate(506,836) scale(3.7766666666667)"><rect width="6" height="6"/></g>
<g transform="translate(616,836) scale(3.7766666666667)"><rect width="6" height="6"/></g>
<g transform="translate(638,836) scale(3.7766666666667)"><rect width="6" height="6"/></g>
<g transform="translate(682,836) scale(3.7766666666667)"><rect width="6" height="6"/></g>
<g transform="translate(748,836) scale(3.7766666666667)"><rect width="6" height="6"/></g>
<g transform="translate(770,836) scale(3.7766666666667)"><rect width="6" height="6"/></g>
<g transform="translate(792,836) scale(3.7766666666667)"><rect width="6" height="6"/></g>
<g transform="translate(814,836) scale(3.7766666666667)"><rect width="6" height="6"/></g>
<g transform="translate(836,836) scale(3.7766666666667)"><rect width="6" height="6"/></g>
<g transform="translate(858,836) scale(3.7766666666667)"><rect width="6" height="6"/></g>
<g transform="translate(880,836) scale(3.7766666666667)"><rect width="6" height="6"/></g>
<g transform="translate(924,836) scale(3.7766666666667)"><rect width="6" height="6"/></g>
<g transform="translate(220,858) scale(3.7766666666667)"><rect width="6" height="6"/></g>
<g transform="translate(242,858) scale(3.7766666666667)"><rect width="6" height="6"/></g>
<g transform="translate(286,858) scale(3.7766666666667)"><rect width="6" height="6"/></g>
<g transform="translate(308,858) scale(3.7766666666667)"><rect width="6" height="6"/></g>
<g transform="translate(330,858) scale(3.7766666666667)"><rect width="6" height="6"/></g>
<g transform="translate(352,858) scale(3.7766666666667)"><rect width="6" height="6"/></g>
<g transform="translate(396,858) scale(3.7766666666667)"><rect width="6" height="6"/></g>
<g transform="translate(440,858) scale(3.7766666666667)"><rect width="6" height="6"/></g>
<g transform="translate(462,858) scale(3.7766666666667)"><rect width="6" height="6"/></g>
<g transform="translate(484,858) scale(3.7766666666667)"><rect width="6" height="6"/></g>
<g transform="translate(506,858) scale(3.7766666666667)"><rect width="6" height="6"/></g>
<g transform="translate(528,858) scale(3.7766666666667)"><rect width="6" height="6"/></g>
<g transform="translate(550,858) scale(3.7766666666667)"><rect width="6" height="6"/></g>
<g transform="translate(660,858) scale(3.7766666666667)"><rect width="6" height="6"/></g>
<g transform="translate(704,858) scale(3.7766666666667)"><rect width="6" height="6"/></g>
<g transform="translate(770,858) scale(3.7766666666667)"><rect width="6" height="6"/></g>
<g transform="translate(814,858) scale(3.7766666666667)"><rect width="6" height="6"/></g>
<g transform="translate(858,858) scale(3.7766666666667)"><rect width="6" height="6"/></g>
<g transform="translate(924,858) scale(3.7766666666667)"><rect width="6" height="6"/></g>
<g transform="translate(220,880) scale(3.7766666666667)"><rect width="6" height="6"/></g>
<g transform="translate(264,880) scale(3.7766666666667)"><rect width="6" height="6"/></g>
<g transform="translate(308,880) scale(3.7766666666667)"><rect width="6" height="6"/></g>
<g transform="translate(352,880) scale(3.7766666666667)"><rect width="6" height="6"/></g>
<g transform="translate(396,880) scale(3.7766666666667)"><rect width="6" height="6"/></g>
<g transform="translate(440,880) scale(3.7766666666667)"><rect width="6" height="6"/></g>
<g transform="translate(484,880) scale(3.7766666666667)"><rect width="6" height="6"/></g>
<g transform="translate(616,880) scale(3.7766666666667)"><rect width="6" height="6"/></g>
<g transform="translate(638,880) scale(3.7766666666667)"><rect width="6" height="6"/></g>
<g transform="translate(660,880) scale(3.7766666666667)"><rect width="6" height="6"/></g>
<g transform="translate(682,880) scale(3.7766666666667)"><rect width="6" height="6"/></g>
<g transform="translate(704,880) scale(3.7766666666667)"><rect width="6" height="6"/></g>
<g transform="translate(726,880) scale(3.7766666666667)"><rect width="6" height="6"/></g>
<g transform="translate(770,880) scale(3.7766666666667)"><rect width="6" height="6"/></g>
<g transform="translate(792,880) scale(3.7766666666667)"><rect width="6" height="6"/></g>
<g transform="translate(814,880) scale(3.7766666666667)"><rect width="6" height="6"/></g>
<g transform="translate(836,880) scale(3.7766666666667)"><rect width="6" height="6"/></g>
<g transform="translate(858,880) scale(3.7766666666667)"><rect width="6" height="6"/></g>
<g transform="translate(880,880) scale(3.7766666666667)"><rect width="6" height="6"/></g>
<g transform="translate(902,880) scale(3.7766666666667)"><rect width="6" height="6"/></g>
<g transform="translate(308,902) scale(3.7766666666667)"><rect width="6" height="6"/></g>
<g transform="translate(330,902) scale(3.7766666666667)"><rect width="6" height="6"/></g>
<g transform="translate(374,902) scale(3.7766666666667)"><rect width="6" height="6"/></g>
<g transform="translate(506,902) scale(3.7766666666667)"><rect width="6" height="6"/></g>
<g transform="translate(550,902) scale(3.7766666666667)"><rect width="6" height="6"/></g>
<g transform="translate(616,902) scale(3.7766666666667)"><rect width="6" height="6"/></g>
<g transform="translate(638,902) scale(3.7766666666667)"><rect width="6" height="6"/></g>
<g transform="translate(726,902) scale(3.7766666666667)"><rect width="6" height="6"/></g>
<g transform="translate(748,902) scale(3.7766666666667)"><rect width="6" height="6"/></g>
<g transform="translate(770,902) scale(3.7766666666667)"><rect width="6" height="6"/></g>
<g transform="translate(836,902) scale(3.7766666666667)"><rect width="6" height="6"/></g>
<g transform="translate(858,902) scale(3.7766666666667)"><rect width="6" height="6"/></g>
<g transform="translate(902,902) scale(3.7766666666667)"><rect width="6" height="6"/></g>
<g transform="translate(220,924) scale(3.7766666666667)"><rect width="6" height="6"/></g>
<g transform="translate(286,924) scale(3.7766666666667)"><rect width="6" height="6"/></g>
<g transform="translate(308,924) scale(3.7766666666667)"><rect width="6" height="6"/></g>
<g transform="translate(352,924) scale(3.7766666666667)"><rect width="6" height="6"/></g>
<g transform="translate(396,924) scale(3.7766666666667)"><rect width="6" height="6"/></g>
<g transform="translate(440,924) scale(3.7766666666667)"><rect width="6" height="6"/></g>
<g transform="translate(484,924) scale(3.7766666666667)"><rect width="6" height="6"/></g>
<g transform="translate(528,924) scale(3.7766666666667)"><rect width="6" height="6"/></g>
<g transform="translate(550,924) scale(3.7766666666667)"><rect width="6" height="6"/></g>
<g transform="translate(572,924) scale(3.7766666666667)"><rect width="6" height="6"/></g>
<g transform="translate(594,924) scale(3.7766666666667)"><rect width="6" height="6"/></g>
<g transform="translate(616,924) scale(3.7766666666667)"><rect width="6" height="6"/></g>
<g transform="translate(682,924) scale(3.7766666666667)"><rect width="6" height="6"/></g>
<g transform="translate(704,924) scale(3.7766666666667)"><rect width="6" height="6"/></g>
<g transform="translate(792,924) scale(3.7766666666667)"><rect width="6" height="6"/></g>
<g transform="translate(814,924) scale(3.7766666666667)"><rect width="6" height="6"/></g>
<g transform="translate(836,924) scale(3.7766666666667)"><rect width="6" height="6"/></g>
<g transform="translate(880,924) scale(3.7766666666667)"><rect width="6" height="6"/></g>
<g transform="translate(44,44)"><g transform="scale(11)"><path d="M0,0v14h14V0H0z M12,12H2V2h10V12z"/></g></g>
<g transform="translate(792,44)"><g transform="scale(11)"><path d="M0,0v14h14V0H0z M12,12H2V2h10V12z"/></g></g>
<g transform="translate(44,792)"><g transform="scale(11)"><path d="M0,0v14h14V0H0z M12,12H2V2h10V12z"/></g></g>
<g transform="translate(88,88)"><g transform="scale(11)"><rect width="6" height="6"/></g></g>
<g transform="translate(836,88)"><g transform="scale(11)"><rect width="6" height="6"/></g></g>
<g transform="translate(88,836)"><g transform="scale(11)"><rect width="6" height="6"/></g></g>
</g></g></mask></defs><rect x="0" y="0" width="990" height="990" mask="url(#qrmask)" fill="url(#pattern-mask)"/></svg>
